<svg class="main-svg" xmlns="http://www.w3.org/2000/svg" xmlns:xlink="http://www.w3.org/1999/xlink" width="700" height="450" style="" viewBox="0 0 700 450"><rect x="0" y="0" width="700" height="450" style="fill: rgb(255, 255, 255); fill-opacity: 1;"/><defs id="defs-51a890"><g class="clips"><clipPath id="clip51a890xyplot" class="plotclip"><rect width="580" height="330"/></clipPath><clipPath class="axesclip" id="clip51a890x"><rect x="60" y="0" width="580" height="450"/></clipPath><clipPath class="axesclip" id="clip51a890y"><rect x="0" y="60" width="700" height="330"/></clipPath><clipPath class="axesclip" id="clip51a890xy"><rect x="60" y="60" width="580" height="330"/></clipPath></g><g class="gradients"/></defs><g class="bglayer"/><g class="layer-below"><g class="imagelayer"/><g class="shapelayer"/></g><g class="cartesianlayer"><g class="subplot xy"><g class="layer-subplot"><g class="shapelayer"/><g class="imagelayer"/></g><g class="gridlayer"><g class="x"><path class="xgrid crisp" transform="translate(166.42000000000002,0)" d="M0,60v330" style="stroke: rgb(238, 238, 238); stroke-opacity: 1; stroke-width: 1px;"/><path class="xgrid crisp" transform="translate(272.84000000000003,0)" d="M0,60v330" style="stroke: rgb(238, 238, 238); stroke-opacity: 1; stroke-width: 1px;"/><path class="xgrid crisp" transform="translate(379.27,0)" d="M0,60v330" style="stroke: rgb(238, 238, 238); stroke-opacity: 1; stroke-width: 1px;"/><path class="xgrid crisp" transform="translate(485.69,0)" d="M0,60v330" style="stroke: rgb(238, 238, 238); stroke-opacity: 1; stroke-width: 1px;"/><path class="xgrid crisp" transform="translate(592.11,0)" d="M0,60v330" style="stroke: rgb(238, 238, 238); stroke-opacity: 1; stroke-width: 1px;"/></g><g class="y"><path class="ygrid crisp" transform="translate(0,357.99)" d="M60,0h580" style="stroke: rgb(238, 238, 238); stroke-opacity: 1; stroke-width: 1px;"/><path class="ygrid crisp" transform="translate(0,304.75)" d="M60,0h580" style="stroke: rgb(238, 238, 238); stroke-opacity: 1; stroke-width: 1px;"/><path class="ygrid crisp" transform="translate(0,251.52)" d="M60,0h580" style="stroke: rgb(238, 238, 238); stroke-opacity: 1; stroke-width: 1px;"/><path class="ygrid crisp" transform="translate(0,198.28)" d="M60,0h580" style="stroke: rgb(238, 238, 238); stroke-opacity: 1; stroke-width: 1px;"/><path class="ygrid crisp" transform="translate(0,145.04000000000002)" d="M60,0h580" style="stroke: rgb(238, 238, 238); stroke-opacity: 1; stroke-width: 1px;"/><path class="ygrid crisp" transform="translate(0,91.8)" d="M60,0h580" style="stroke: rgb(238, 238, 238); stroke-opacity: 1; stroke-width: 1px;"/></g></g><g class="zerolinelayer"><path class="xzl zl crisp" transform="translate(60,0)" d="M0,60v330" style="stroke: rgb(68, 68, 68); stroke-opacity: 1; stroke-width: 1px;"/></g><path class="xlines-below"/><path class="ylines-below"/><g class="overlines-below"/><g class="xaxislayer-below"/><g class="yaxislayer-below"/><g class="overaxes-below"/><g class="plot" transform="translate(60, 60)" clip-path="url(#clip51a890xyplot)"><g class="scatterlayer mlayer"><g class="trace scatter tracef75299" style="stroke-miterlimit: 2; opacity: 1;"><g class="fills"/><g class="errorbars"/><g class="lines"><path class="js-line" d="M0,29.29L1.06,31.11L2.13,27.27L3.19,32.6L4.26,29.93L5.32,31.25L6.39,29.81L7.45,28.27L8.51,33.03L9.58,28.49L10.64,29.7L12.77,33.28L13.83,30.89L14.9,29L15.96,22.64L19.16,32.79L20.22,29.61L21.28,27.78L22.35,31.59L23.41,27.91L24.48,34.68L26.61,30.73L27.67,37.07L28.73,27.79L29.8,28.4L30.86,33.8L31.93,29.36L32.99,30.92L34.06,29.63L35.12,27.81L36.18,27.52L38.31,33.42L39.38,28.75L40.44,35.7L41.5,32.14L42.57,38.11L43.63,32.34L44.7,25.76L45.76,25.63L46.83,36.14L47.89,26.92L48.95,27.92L50.02,27.3L51.08,24.22L52.15,27.94L53.21,26.04L54.28,34.43L55.34,26.6L56.4,33.59L57.47,25.3L58.53,30.77L59.6,34.14L60.66,30.74L61.72,30.02L62.79,30.92L63.85,32.76L64.92,25.88L65.98,28.25L67.05,27.25L68.11,25.36L69.17,32.1L70.24,30.6L71.3,36.23L73.43,28.68L74.5,28.2L75.56,30.94L76.62,31.21L77.69,27.43L78.75,34.56L79.82,33.68L80.88,30.47L81.94,28.01L83.01,32.57L84.07,27.97L85.14,32.11L86.2,35.93L87.27,36.03L88.33,31.29L89.39,32.52L90.46,26.74L91.52,30.31L92.59,34.46L93.65,28.68L94.72,32.59L95.78,26.6L96.84,31.53L97.91,31.9L100.04,30.97L101.1,33.42L102.17,36.13L103.23,32.67L104.29,33.47L105.36,27.86L106.42,33.7L107.49,26.73L108.55,31.6L109.61,27.24L110.68,27.71L111.74,29.79L112.81,32.43L113.87,27.27L114.94,26.3L116,31.81L117.06,36.93L118.13,22.34L122.39,43.31L123.45,35.48L125.58,25.72L126.64,30.37L127.71,43.27L128.77,27.56L129.83,27.53L130.9,35.41L133.03,25.71L134.09,27.26L135.16,35.07L136.22,26.98L137.28,29.7L138.35,37.34L139.41,40.37L140.48,31.86L141.54,32.62L142.61,26.11L144.73,24.81L145.8,30.25L146.86,43.99L147.93,34.75L148.99,29.63L150.06,35.92L151.12,30.72L152.18,16.5L153.25,35.45L154.31,35.51L156.44,23.06L157.5,31.18L159.63,25.42L160.7,27.62L161.76,30.42L162.83,29.34L163.89,26.54L164.95,28.63L166.02,26.85L167.08,31L168.15,33.99L169.21,32.76L170.28,31.03L171.34,33.02L173.47,31.3L174.53,28.14L177.72,32.85L178.79,29.83L179.85,37.28L180.92,31.5L183.05,27.67L184.11,32.9L185.17,24.71L186.24,31.93L187.3,36.86L188.37,31.17L189.43,38.01L190.5,33.21L191.56,34.94L192.62,39.86L193.69,30.27L194.75,30.18L195.82,31.36L196.88,24.28L197.94,32.66L199.01,23.54L201.14,38.34L202.2,24.73L203.27,39.45L204.33,24.58L205.39,32.89L206.46,28.66L207.52,34.39L208.59,31.05L209.65,30.41L210.72,24.58L211.78,27.42L212.84,35.93L213.91,31.44L214.97,32.09L216.04,34.5L217.1,32.43L218.17,30.65L219.23,34.77L220.29,29.04L221.36,28.57L222.42,27.18L223.49,31.32L224.55,36.86L225.61,37.15L226.68,36.14L227.74,26.1L228.81,34.2L229.87,28.26L230.94,38.5L232,30.36L233.06,39.57L234.13,35.52L235.19,35.15L236.26,39.57L237.32,30.62L238.39,37L239.45,32.91L240.51,34.99L241.58,39.06L242.64,33.42L243.71,37.22L244.77,34.46L245.83,40.46L246.9,35.51L247.96,37.61L249.03,46.73L250.09,33.84L251.16,53.27L253.28,38.69L254.35,48.84L255.41,38.85L256.48,39.78L257.54,44.14L258.61,54.64L259.67,81.44L260.73,61.05L261.8,43.62L262.86,54.49L263.93,69.59L264.99,64.37L266.06,33.7L267.12,62.66L268.18,58.06L269.25,72.33L270.31,63.84L271.38,64.27L272.44,81.21L273.5,44.81L274.57,45.79L275.63,43.96L276.7,82.39L277.76,81.59L278.83,98.23L279.89,83.38L280.95,57.63L282.02,81.07L283.08,68.49L284.15,79.87L285.21,51.4L286.28,80.27L287.34,90.68L288.4,88.52L289.47,90.88L290.53,45.91L291.6,68.94L292.66,66.35L294.79,93.41L295.85,39.56L296.92,71.98L297.98,71.66L299.05,66.23L300.11,99.9L301.17,69.48L302.24,86.88L303.3,112.39L304.37,86.05L305.43,58.99L306.5,73.9L307.56,49.83L308.62,90.03L309.69,72.93L310.75,77.95L311.82,103.37L312.88,79.5L313.94,131.28L315.01,110.04L316.07,83.04L317.14,120.59L318.2,78.71L319.27,68.78L320.33,118.47L321.39,89.53L322.46,71.73L323.52,106.12L324.59,99.63L325.65,55.6L327.78,109.29L328.84,112.88L329.91,60.71L330.97,86.31L332.04,83.11L333.1,128.05L335.23,41.5L336.29,115.67L337.36,88.09L338.42,90.15L340.55,150.18L341.61,119.78L342.68,140.49L343.74,77.56L345.87,139.61L346.94,97.83L349.06,104.35L350.13,136.98L351.19,113.68L352.26,107.75L353.32,168.29L354.39,93.23L355.45,81.15L356.51,121.95L357.58,109.02L358.64,118.28L359.71,163.26L360.77,154.03L361.83,91.73L362.9,115.07L365.03,101.36L366.09,96.44L367.16,151.28L368.22,138.09L369.28,161.31L370.35,121.97L371.41,157.69L372.48,119.69L374.61,165.47L375.67,163.61L376.73,98.77L377.8,127.58L378.86,104.92L379.93,107.37L380.99,162.22L382.06,110.03L383.12,142.4L384.18,121.17L386.31,129.82L387.38,114.07L388.44,149.67L389.5,128.03L390.57,120.48L391.63,137.45L392.7,137.39L393.76,144.15L394.83,109.8L395.89,132.95L396.95,136L398.02,128.99L399.08,133.58L400.15,166.4L401.21,148.64L402.28,167.96L403.34,163.06L404.4,169.26L405.47,118.08L406.53,123.92L407.6,163.61L408.66,112.74L409.72,158.35L410.79,154.74L411.85,193.17L412.92,146.49L415.05,129.65L416.11,158.93L417.17,156.53L418.24,204.32L419.3,140.73L420.37,150.64L421.43,167.96L422.5,150.42L423.56,184.55L424.62,190.74L425.69,201.13L426.75,161.01L427.82,155.55L428.88,140.6L429.94,169.52L431.01,165.18L433.14,196.55L434.2,164.52L436.33,144.9L437.39,221.98L438.46,177.34L439.52,202.66L440.59,182.46L441.65,193.74L442.72,194.61L443.78,180.65L444.84,126.17L445.91,159.04L446.97,192.96L448.04,142.6L450.17,209.33L451.23,163.9L452.29,203.79L453.36,150.5L454.42,182.5L455.49,161.41L456.55,169.22L457.61,198.35L458.68,183.08L459.74,190.93L460.81,166.64L461.87,215.35L464,145.4L465.06,244.1L467.19,173.11L468.26,192.06L469.32,195.43L470.39,216.18L471.45,212.77L472.51,173.23L473.58,232.64L474.64,217.9L475.71,222.61L476.77,154.19L477.83,248.21L478.9,196.23L482.09,251.55L483.16,210.45L484.22,215.46L485.28,271.32L487.41,147.93L488.48,194.59L489.54,191.84L490.61,222.07L491.67,313.5L492.73,187L493.8,255.37L494.86,166.77L495.93,204.78L496.99,198.57L498.06,167.92L499.12,227.48L500.18,255.68L501.25,207.72L502.31,234.94L503.38,191.87L504.44,269.31L505.5,228.17L506.57,200.26L507.63,273.24L509.76,198.65L510.83,267.04L511.89,180.83L512.95,213.96L514.02,211.12L515.08,242.66L516.15,286.51L517.21,191.58L519.34,265.08L520.4,268.23L521.47,217.83L522.53,209.67L523.6,205.59L524.66,245.59L525.72,197.96L526.79,223.53L527.85,242.75L528.92,233.2L529.98,214.6L531.05,248.81L533.17,208.82L534.24,232.91L535.3,208.6L536.37,283.42L537.43,245.33L538.5,299.95L539.56,292.29L540.62,270.03L541.69,216.92L542.75,251.06L543.82,243.55L544.88,251.01L545.94,283.14L547.01,222.37L549.14,258.7L550.2,201.53L551.27,245.32L552.33,221.21L553.39,248.13L554.46,210.81L555.52,262.23L556.59,251.78L557.65,203.34L558.72,248.96L559.78,295.52L560.84,217.97L562.97,254.97L564.04,206.63L565.1,270.12L566.17,232.02L567.23,237.75L568.29,207.68L570.42,301.49L571.49,263.23L572.55,194.52L573.61,280.88L574.68,236.91L575.74,285.36L576.81,218.58L577.87,241.41L578.94,267.93L580,234.29" style="vector-effect: non-scaling-stroke; fill: none; stroke: rgb(31, 119, 180); stroke-opacity: 1; stroke-width: 2px; opacity: 1;"/></g><g class="points"/><g class="text"/></g></g></g><g class="overplot"/><path class="xlines-above crisp" d="M0,0" style="fill: none;"/><path class="ylines-above crisp" d="M0,0" style="fill: none;"/><g class="overlines-above"/><g class="xaxislayer-above"><g class="xtick"><text text-anchor="middle" x="0" y="403" transform="translate(60,0)" style="font-family: 'Open Sans', verdana, arial, sans-serif; font-size: 12px; fill: rgb(68, 68, 68); fill-opacity: 1; white-space: pre;">0</text></g><g class="xtick"><text text-anchor="middle" x="0" y="403" transform="translate(166.42000000000002,0)" style="font-family: 'Open Sans', verdana, arial, sans-serif; font-size: 12px; fill: rgb(68, 68, 68); fill-opacity: 1; white-space: pre;">100</text></g><g class="xtick"><text text-anchor="middle" x="0" y="403" transform="translate(272.84000000000003,0)" style="font-family: 'Open Sans', verdana, arial, sans-serif; font-size: 12px; fill: rgb(68, 68, 68); fill-opacity: 1; white-space: pre;">200</text></g><g class="xtick"><text text-anchor="middle" x="0" y="403" transform="translate(379.27,0)" style="font-family: 'Open Sans', verdana, arial, sans-serif; font-size: 12px; fill: rgb(68, 68, 68); fill-opacity: 1; white-space: pre;">300</text></g><g class="xtick"><text text-anchor="middle" x="0" y="403" transform="translate(485.69,0)" style="font-family: 'Open Sans', verdana, arial, sans-serif; font-size: 12px; fill: rgb(68, 68, 68); fill-opacity: 1; white-space: pre;">400</text></g><g class="xtick"><text text-anchor="middle" x="0" y="403" transform="translate(592.11,0)" style="font-family: 'Open Sans', verdana, arial, sans-serif; font-size: 12px; fill: rgb(68, 68, 68); fill-opacity: 1; white-space: pre;">500</text></g></g><g class="yaxislayer-above"><g class="ytick"><text text-anchor="end" x="59" y="4.199999999999999" transform="translate(0,357.99)" style="font-family: 'Open Sans', verdana, arial, sans-serif; font-size: 12px; fill: rgb(68, 68, 68); fill-opacity: 1; white-space: pre;">1.8</text></g><g class="ytick"><text text-anchor="end" x="59" y="4.199999999999999" transform="translate(0,304.75)" style="font-family: 'Open Sans', verdana, arial, sans-serif; font-size: 12px; fill: rgb(68, 68, 68); fill-opacity: 1; white-space: pre;">1.9</text></g><g class="ytick"><text text-anchor="end" x="59" y="4.199999999999999" transform="translate(0,251.52)" style="font-family: 'Open Sans', verdana, arial, sans-serif; font-size: 12px; fill: rgb(68, 68, 68); fill-opacity: 1; white-space: pre;">2</text></g><g class="ytick"><text text-anchor="end" x="59" y="4.199999999999999" transform="translate(0,198.28)" style="font-family: 'Open Sans', verdana, arial, sans-serif; font-size: 12px; fill: rgb(68, 68, 68); fill-opacity: 1; white-space: pre;">2.1</text></g><g class="ytick"><text text-anchor="end" x="59" y="4.199999999999999" transform="translate(0,145.04000000000002)" style="font-family: 'Open Sans', verdana, arial, sans-serif; font-size: 12px; fill: rgb(68, 68, 68); fill-opacity: 1; white-space: pre;">2.2</text></g><g class="ytick"><text text-anchor="end" x="59" y="4.199999999999999" transform="translate(0,91.8)" style="font-family: 'Open Sans', verdana, arial, sans-serif; font-size: 12px; fill: rgb(68, 68, 68); fill-opacity: 1; white-space: pre;">2.3</text></g></g><g class="overaxes-above"/></g></g><g class="polarlayer"/><g class="ternarylayer"/><g class="geolayer"/><g class="pielayer"/><g class="glimages"/><defs id="topdefs-51a890"><g class="clips"/></defs><g class="layer-above"><g class="imagelayer"/><g class="shapelayer"/></g><g class="infolayer"><g class="g-gtitle"/><g class="g-xtitle"><text class="xtitle" x="350" y="442" text-anchor="middle" style="font-family: 'Open Sans', verdana, arial, sans-serif; font-size: 14px; fill: rgb(68, 68, 68); opacity: 1; font-weight: normal; white-space: pre;">Batch</text></g><g class="g-ytitle"><text class="ytitle" transform="rotate(-90,22,225)" x="22" y="225" text-anchor="middle" style="font-family: 'Open Sans', verdana, arial, sans-serif; font-size: 14px; fill: rgb(68, 68, 68); opacity: 1; font-weight: normal; white-space: pre;">Loss</text></g></g></svg>